<svg xmlns="http://www.w3.org/2000/svg" width="95.582" height="87.617" viewBox="0 0 95.582 87.617">
  <g id="attach" transform="translate(0 -21.333)">
    <path id="Path_1" data-name="Path 1" d="M24.52,108.95A24.52,24.52,0,0,1,7.182,67.092L52.357,21.916a1.991,1.991,0,0,1,2.816,2.816L10,69.908A20.538,20.538,0,0,0,39.042,98.953L87.234,50.761a14.906,14.906,0,0,0-21.08-21.08L22.63,73.206A9.273,9.273,0,1,0,35.744,86.32L76.253,45.812a1.991,1.991,0,0,1,2.816,2.816L38.56,89.136A13.255,13.255,0,1,1,19.814,70.39L63.338,26.865A18.888,18.888,0,1,1,90.05,53.577L41.858,101.769A24.354,24.354,0,0,1,24.52,108.95Z" fill="gray"/>
    <path id="Path_2" data-name="Path 2" d="M24.52,108.95A24.52,24.52,0,0,1,7.182,67.092L52.357,21.916a1.991,1.991,0,0,1,2.816,2.816L10,69.908A20.538,20.538,0,0,0,39.042,98.953L87.234,50.761a14.906,14.906,0,0,0-21.08-21.08L22.63,73.206A9.273,9.273,0,1,0,35.744,86.32L76.253,45.812a1.991,1.991,0,0,1,2.816,2.816L38.56,89.136A13.255,13.255,0,1,1,19.814,70.39L63.338,26.865A18.888,18.888,0,1,1,90.05,53.577L41.858,101.769A24.354,24.354,0,0,1,24.52,108.95Z" fill="none"/>
  </g>
</svg>
